<?xml version="1.0" encoding="UTF-8"?>
<svg id="logo" xmlns="http://www.w3.org/2000/svg" viewBox="0 0 1024 1024">
  <defs>
    <style>
      .cls-1 {
        fill: #0059c2;
      }

      .cls-2 {
        fill: #008bcd;
      }

      .cls-3 {
        fill: #f57500;
      }
    </style>
  </defs>
  <g id="tight">
    <path id="inner" class="cls-2" d="M833.73,633.98c.04,9.44-2.32,17.83-5.76,26.02-11.07,26.38-32.73,58.02-51.75,79.79-36.71,41.99-82.26,74.39-133.86,95.65-63.22,26.04-133.51,31.52-200.28,18.24-51.81-10.31-101.68-33.73-143.26-65.9-34.23-26.48-61.37-56.55-84.29-93.26-18.73-30-32.12-62.62-40.83-96.9-12.35-48.61-13.45-98.9-4.58-148.15,13.56-75.22,51.46-143.83,107.34-195.4,26.4-24.36,65.18-25.93,91.6-.51,26.5,25.49,27.31,68.89.73,95.27l-22.35,22.18c-18.56,21.29-32.46,45.7-41.53,72.53-8,23.63-12.41,47.86-11.84,72.97.61,26.88,6.42,52.83,16.29,77.76,11.17,28.23,28.48,53.34,50.11,74.49,15.94,15.59,33.75,28.2,53.41,38.44,52.18,27.18,112.9,32,168.73,12.79,37.15-12.78,70.72-35.58,96.3-65.38,10.91-12.71,19.54-26.23,27.71-40.62l10.13-17.84c10.52-15.68,26.82-25.4,45.68-27.51,39.54-4.42,72.15,25.77,72.32,65.34Z"/>
    <path id="outer" class="cls-1" d="M265.48,805.82c14.4,12.07,29.26,22.55,44.9,32.38,20.39,12.82,41.5,22.96,63.94,31.7,26.4,10.27,53.48,17.57,81.58,21.99,48.94,7.71,98.57,5.12,146.66-6.86,30.56-7.61,59.72-19,87.59-33.37l34.84-19.85c14.28-8.14,32.43-8.55,48.07-3.12,22.2,7.7,38.23,27.08,42.01,50.21,4.17,25.5-7.17,51.57-29.03,65.43-25.49,16.17-52.34,29.77-80.29,41.31-45.94,18.97-94.07,30.74-143.54,35.85-35.9,3.71-71.43,3.26-107.18-.92-39.09-4.57-77.34-13.11-114.38-26.45-44.03-15.86-85.52-37.26-123.69-64.38-54.28-38.56-101.08-86.75-136.88-142.96-16.71-26.23-31.31-53.55-42.88-82.46-20.25-50.56-32.62-103.63-36.18-158.04-1.45-22.19-1.19-43.66-.05-65.78,1.21-23.53,4.68-46.07,9.14-69.18,7.06-36.56,18.34-71.67,33.11-105.87,26.73-61.88,67-117.67,115.82-163.98,46.04-43.68,99.33-78.31,158.01-102.67,40.41-16.77,82.92-28.48,126.43-34.25,126.64-16.8,251.3,13.2,356.78,84.73,26.66,18.08,51.51,38.86,74.33,61.58,42.14,41.95,76.67,90.66,101.63,144.66,41.07,88.87,56.24,187.69,43.31,284.81-4.73,35.54-13.39,70.19-24.84,104.02-5.87,17.36-17.62,31.93-34.37,39.56-16.89,7.7-36.37,8.16-53.4.68-23.94-10.52-39.03-34.98-37.91-60.99.27-6.38,1.73-12.09,3.63-18.06,6.19-19.46,12.34-38.39,16.35-58.54,8.32-41.87,9.38-86.51,3.27-128.85-10.96-75.99-43-145.67-94.26-202.88-34.18-38.14-76-69.14-122.29-91.04-71.41-33.78-151.08-44.42-228.98-31.11-81.54,13.94-156.47,54.36-213.4,114.25-33.6,35.35-60.34,76.69-78.17,122.1-6.83,17.4-12.44,34.68-16.68,52.87-6.97,29.97-10.61,60.14-10.69,90.99-.06,22.05,2.12,43.27,5.84,64.96,6.17,35.91,17.4,70.76,33.71,103.32,23.92,47.76,57.02,89.72,98.16,124.21Z"/>
    <ellipse id="center" class="cls-3" cx="511.99" cy="512.8" rx="121.41" ry="121.35"/>
  </g>
</svg>