<?xml version="1.0" encoding="UTF-8"?>
<svg id="logo" xmlns="http://www.w3.org/2000/svg" viewBox="0 0 1024 1024">
  <defs>
    <style>
      .cls-1 {
        fill: #0059c2;
      }

      .cls-2 {
        fill: #008bcd;
      }

      .cls-3 {
        fill: #f57500;
      }
    </style>
  </defs>
  <g id="safe">
    <path id="inner" class="cls-2" d="M788.49,618.25c.03,8.11-2,15.32-4.95,22.36-9.51,22.67-28.12,49.86-44.47,68.57-31.54,36.08-70.69,63.93-115.04,82.2-54.33,22.38-114.73,27.09-172.12,15.68-44.53-8.86-87.38-28.99-123.11-56.63-29.41-22.76-52.74-48.6-72.44-80.14-16.1-25.78-27.6-53.81-35.09-83.28-10.61-41.78-11.56-85-3.93-127.31,11.65-64.64,44.23-123.6,92.25-167.92,22.69-20.94,56.01-22.28,78.71-.44,22.77,21.9,23.47,59.2.62,81.87l-19.21,19.06c-15.95,18.3-27.89,39.28-35.69,62.33-6.87,20.31-10.66,41.13-10.18,62.71.52,23.1,5.52,45.4,14,66.83,9.6,24.26,24.48,45.83,43.06,64.02,13.7,13.4,29,24.23,45.9,33.03,44.84,23.36,97.03,27.5,145,10.99,31.93-10.99,60.77-30.58,82.76-56.19,9.37-10.92,16.8-22.54,23.81-34.9l8.71-15.33c9.04-13.47,23.05-21.83,39.26-23.64,33.98-3.8,62.01,22.14,62.15,56.15Z"/>
    <path id="outer" class="cls-1" d="M300.15,765.92c12.38,10.37,25.15,19.38,38.58,27.83,17.52,11.02,35.66,19.73,54.95,27.24,22.68,8.83,45.96,15.1,70.11,18.9,42.06,6.62,84.71,4.4,126.03-5.89,26.26-6.54,51.32-16.33,75.27-28.68l29.94-17.06c12.27-6.99,27.87-7.34,41.31-2.68,19.08,6.62,32.85,23.28,36.1,43.15,3.58,21.91-6.17,44.32-24.94,56.23-21.91,13.9-44.98,25.58-69,35.5-39.48,16.31-80.84,26.42-123.36,30.81-30.85,3.19-61.39,2.8-92.1-.79-33.59-3.93-66.46-11.26-98.3-22.73-37.84-13.63-73.49-32.02-106.3-55.32-46.65-33.14-86.87-74.55-117.63-122.86-14.36-22.54-26.9-46.02-36.85-70.86-17.4-43.45-28.04-89.06-31.09-135.81-1.25-19.07-1.02-37.52-.04-56.53,1.04-20.22,4.02-39.59,7.86-59.45,6.07-31.42,15.76-61.59,28.45-90.98,22.97-53.18,57.58-101.13,99.53-140.92,39.57-37.54,85.37-67.3,135.79-88.23,34.73-14.41,71.26-24.47,108.65-29.44,108.83-14.44,215.96,11.35,306.61,72.81,22.91,15.54,44.26,33.4,63.87,52.92,36.21,36.05,65.89,77.91,87.33,124.32,35.29,76.38,48.33,161.3,37.22,244.76-4.07,30.55-11.51,60.32-21.35,89.39-5.05,14.92-15.14,27.44-29.54,34-14.51,6.62-31.25,7.02-45.89.59-20.58-9.04-33.54-30.06-32.58-52.41.24-5.48,1.49-10.39,3.12-15.52,5.32-16.72,10.61-32.99,14.05-50.31,7.15-35.98,8.06-74.34,2.81-110.73-9.42-65.3-36.95-125.19-81-174.35-29.37-32.78-65.31-59.42-105.09-78.24-61.37-29.03-129.84-38.18-196.78-26.74-70.08,11.98-134.47,46.72-183.39,98.19-28.87,30.38-51.85,65.91-67.18,104.93-5.87,14.95-10.69,29.81-14.33,45.44-5.99,25.75-9.12,51.68-9.18,78.19-.05,18.95,1.82,37.18,5.02,55.82,5.3,30.86,14.95,60.81,28.97,88.79,20.56,41.04,49,77.1,84.35,106.74Z"/>
    <ellipse id="center" class="cls-3" cx="511.99" cy="514.11" rx="104.33" ry="104.28"/>
  </g>
</svg>