<?xml version="1.0" encoding="UTF-8"?>
<svg id="logo" xmlns="http://www.w3.org/2000/svg" viewBox="0 0 1024 1024">
  <defs>
    <style>
      .cls-1 {
        fill: #0059c2;
      }

      .cls-2 {
        fill: #008bcd;
      }

      .cls-3 {
        fill: #f57500;
      }
    </style>
  </defs>
  <g id="marketing">
    <path id="inner" class="cls-2" d="M763.35,608.09c.03,7.38-1.82,13.93-4.5,20.33-8.65,20.61-25.57,45.33-40.43,62.33-28.68,32.8-64.26,58.12-104.58,74.72-49.39,20.34-104.3,24.63-156.47,14.25-40.48-8.05-79.43-26.35-111.92-51.48-26.74-20.69-47.95-44.18-65.85-72.86-14.63-23.44-25.09-48.92-31.9-75.71-9.65-37.98-10.51-77.27-3.58-115.74,10.59-58.76,40.2-112.37,83.86-152.66,20.62-19.03,50.92-20.25,71.56-.4,20.7,19.91,21.34,53.82.57,74.43l-17.46,17.33c-14.5,16.63-25.36,35.71-32.45,56.66-6.25,18.46-9.69,37.39-9.25,57.01.47,21,5.01,41.27,12.73,60.75,8.73,22.05,22.25,41.67,39.15,58.2,12.45,12.18,26.37,22.03,41.72,30.03,40.76,21.23,88.21,25,131.82,9.99,29.03-9.99,55.25-27.8,75.23-51.08,8.52-9.93,15.27-20.49,21.65-31.73l7.91-13.94c8.22-12.25,20.96-19.85,35.69-21.49,30.89-3.45,56.37,20.13,56.5,51.05Z"/>
    <path id="outer" class="cls-1" d="M319.41,742.34c11.25,9.43,22.86,17.61,35.07,25.3,15.93,10.02,32.42,17.94,49.95,24.76,20.62,8.03,41.78,13.72,63.73,17.18,38.24,6.02,77.01,4,114.58-5.36,23.87-5.95,46.66-14.85,68.43-26.07l27.22-15.5c11.16-6.36,25.33-6.68,37.55-2.44,17.35,6.01,29.86,21.16,32.82,39.23,3.26,19.92-5.61,40.29-22.68,51.12-19.92,12.63-40.89,23.26-62.72,32.27-35.89,14.82-73.49,24.02-112.14,28.01-28.05,2.9-55.81,2.55-83.73-.72-30.54-3.57-60.42-10.24-89.36-20.67-34.4-12.39-66.81-29.11-96.64-50.29-42.4-30.12-78.97-67.78-106.94-111.69-13.05-20.49-24.46-41.84-33.5-64.42-15.82-39.5-25.49-80.96-28.26-123.47-1.13-17.34-.93-34.11-.04-51.39.95-18.38,3.65-35.99,7.14-54.05,5.52-28.56,14.33-55.99,25.87-82.71,20.88-48.35,52.35-91.93,90.48-128.11,35.97-34.12,77.61-61.18,123.45-80.21,31.57-13.1,64.78-22.25,98.78-26.76,98.93-13.13,196.33,10.31,278.74,66.19,20.83,14.12,40.24,30.36,58.07,48.11,32.92,32.78,59.9,70.83,79.39,113.02,32.08,69.43,43.94,146.63,33.83,222.51-3.7,27.77-10.46,54.84-19.41,81.27-4.59,13.56-13.76,24.94-26.85,30.91-13.19,6.02-28.41,6.38-41.72.53-18.71-8.22-30.49-27.33-29.62-47.65.21-4.98,1.35-9.45,2.84-14.11,4.84-15.2,9.64-29.99,12.77-45.74,6.5-32.71,7.33-67.58,2.56-100.67-8.56-59.36-33.59-113.81-73.64-158.5-26.7-29.8-59.37-54.02-95.54-71.12-55.79-26.39-118.03-34.71-178.89-24.3-63.71,10.89-122.25,42.47-166.72,89.26-26.25,27.61-47.14,59.92-61.07,95.39-5.34,13.59-9.72,27.1-13.03,41.3-5.45,23.41-8.29,46.98-8.35,71.08-.04,17.23,1.65,33.8,4.56,50.75,4.82,28.06,13.59,55.28,26.33,80.72,18.69,37.31,44.54,70.09,76.69,97.04Z"/>
    <ellipse id="center" class="cls-3" cx="511.99" cy="513.42" rx="94.85" ry="94.8"/>
  </g>
</svg>